<svg width="28" height="25" viewBox="0 0 28 25" fill="none" xmlns="http://www.w3.org/2000/svg"><path d="M25.1585 8.18227V8.17828H25.8921L27.9963 0H0L1.18031 4.90898H3.01711L3.01617 4.905H10.2954L10.755 11.5184H16.8412L17.1888 1.7857H20.7459L19.4419 11.5448H23.1818L21.0171 19.9589L19.5811 19.9859L20.5995 13.2727H10.8963V16.6697L8.96344 16.6727L7.49203 6.58383L3.25922 6.50367L3.25734 6.49617H2.86148L2.60977 6.49148V6.49617H1.42055L5.29781 22.6226C5.61727 23.9517 6.79523 24.8798 8.16211 24.8798H19.17C19.4543 24.8798 19.7302 24.837 19.9927 24.7605C21.0509 24.5067 21.9098 23.6888 22.1895 22.5982L23.8898 15.9682L23.8882 15.9677L25.4344 9.95813H24.1685V9.95719H21.2559L21.4931 8.18203H25.1587L25.1585 8.18227ZM25.6924 1.78594L24.4552 6.59461H21.705L22.3474 1.78594H25.6924ZM2.63438 3.31758L2.26617 1.78594H5.32078L5.50289 3.31758H2.63438ZM15.3094 9.93094H12.2358L11.7762 3.31758H7.10133L6.91922 1.78594H15.6002L15.3091 9.93094H15.3094ZM12.4838 14.8605H18.7662L17.7935 21.5979H20.4539L20.2931 22.2232C20.1954 22.6036 19.9155 22.898 19.5614 23.0252C19.4749 23.0449 19.3863 23.0588 19.2947 23.0588H16.215L16.512 16.661L12.4838 16.6673V14.8605ZM14.1127 23.0941H8.16211C7.62398 23.0941 7.16016 22.7287 7.0343 22.2054L6.87984 21.5625H12.769V19.9748H6.49828L3.64289 8.09906L6.11555 8.1457L7.59117 18.2625L14.779 18.251L14.5814 23.0873" fill="url(#paint0_linear_197_176)"></path><defs><linearGradient id="paint0_linear_197_176" x1="13.998" y1="0" x2="13.998" y2="24.8801" gradientUnits="userSpaceOnUse"><stop stop-color="#FF57BE"></stop><stop offset="0.48" stop-color="#9000FF"></stop><stop offset="1" stop-color="#3B006C"></stop></linearGradient></defs></svg>